<svg xmlns="http://www.w3.org/2000/svg" width="24" height="24" viewBox="32 31 132 98" fill="none">
    <path d="M45.3232 66.1506C45.3232 45.3213 59.7865 31.4012 82.0846 31H163.193C158.356 41.6727 154.461 47.084 151.51 47.2339H81.3641C69.2204 47.2666 61.9099 54.3271 61.9099 66.1506C61.9099 77.8459 69.1975 85.407 80.9546 85.454L112.017 85.407C116.529 85.454 120.395 89.3417 120.395 94.0223C120.395 98.703 116.875 101.41 112.448 101.635L81.8574 101.67C60.0634 101.67 45.6581 87.2747 45.329 66.8643L45.3232 66.1506Z" fill="#2546F4"/>
    <path d="M149.87 93.8494C149.87 114.679 135.407 128.599 113.109 129H32C36.8378 118.327 40.7323 112.916 43.6834 112.766H113.829C125.973 112.733 133.284 105.673 133.284 93.8494C133.284 82.1541 125.996 74.593 114.239 74.546L83.1762 74.593C78.6646 74.546 74.7982 70.6583 74.7982 65.9777C74.7982 61.297 78.3184 58.5899 82.745 58.365L113.336 58.3296C135.13 58.3296 149.535 72.7253 149.864 93.1357L149.87 93.8494Z" fill="#2546F4"/>
</svg>
